#tb 0: 1/3
#media_type 0: video
#codec_id 0: rawvideo
#dimensions 0: 320x240
#sar 0: 1/1
0,          5,          5,        1,   115200, 0xa611fd70
0,          6,          6,        1,   115200, 0xe4e2c25a
0,          7,          7,        1,   115200, 0x7f601649
0,          8,          8,        1,   115200, 0x4194305c
0,          9,          9,        1,   115200, 0x7c13cdb3
0,         10,         10,        1,   115200, 0x57d4cca0
